<!DOCTYPE svg PUBLIC "-//W3C//DTD SVG 20010904//EN" "http://www.w3.org/TR/2001/REC-SVG-20010904/DTD/svg10.dtd">
<svg version="1.0" xmlns="http://www.w3.org/2000/svg" width="400px" height="400px" viewBox="0 0 4000 4000" preserveAspectRatio="xMidYMid meet">
<g id="layer101" fill="#fefefe" stroke="none">
 <path d="M1920 3543 l-75 -296 -87 -18 c-48 -9 -118 -27 -155 -39 -424 -140 -761 -527 -835 -962 -8 -43 -18 -72 -28 -77 -8 -4 -142 -39 -297 -76 -156 -38 -283 -72 -283 -75 0 -3 133 -39 297 -80 l296 -75 18 -87 c101 -505 482 -886 987 -987 l87 -18 75 -296 c41 -164 77 -297 80 -297 3 0 37 127 75 282 37 156 72 290 76 298 5 10 34 20 77 28 497 85 919 506 1004 1003 11 65 14 70 43 77 16 5 155 40 308 78 152 38 277 71 277 74 0 4 -138 40 -307 81 l-306 75 -18 87 c-9 47 -27 117 -39 154 -140 424 -527 761 -962 835 -43 8 -72 18 -77 28 -4 8 -39 142 -76 298 -38 155 -72 282 -75 282 -3 0 -39 -133 -80 -297z m-183 -740 l-62 -253 -204 123 c-112 68 -204 127 -205 132 -2 19 152 127 249 175 108 53 278 105 282 86 2 -6 -25 -125 -60 -263z m552 252 c51 -14 135 -45 185 -69 96 -46 261 -160 252 -175 -3 -4 -40 -29 -83 -54 -43 -26 -87 -53 -98 -60 -11 -6 -42 -26 -70 -44 -27 -17 -73 -45 -101 -61 l-52 -30 -65 259 c-35 142 -64 259 -63 259 0 0 43 -11 95 -25z m592 -407 c75 -102 141 -238 173 -358 23 -83 23 -92 8 -88 -9 3 -124 31 -255 64 -150 37 -237 63 -235 70 5 21 233 393 241 394 4 0 34 -37 68 -82z m-1675 39 c72 -108 215 -360 207 -367 -6 -6 -493 -131 -493 -126 1 30 62 213 94 280 41 84 149 246 164 246 4 0 17 -15 28 -33z m-23 -946 c130 -32 240 -61 243 -64 5 -5 -40 -84 -131 -231 -11 -18 -40 -65 -64 -104 -24 -40 -45 -72 -47 -72 -14 0 -133 179 -170 256 -49 103 -100 274 -81 274 7 0 119 -27 250 -59z m1871 -33 c-32 -119 -108 -272 -182 -368 -32 -41 -61 -75 -66 -75 -12 0 -248 396 -241 403 5 6 477 127 507 131 4 1 -5 -41 -18 -91z m-1314 -521 c33 -135 60 -251 60 -256 0 -17 -179 38 -274 83 -102 49 -263 163 -250 176 12 11 398 248 401 245 2 -1 30 -112 63 -248z m770 126 c99 -60 190 -113 201 -120 20 -10 16 -15 -61 -73 -104 -77 -239 -142 -361 -175 -52 -14 -95 -25 -95 -25 -2 0 115 471 121 488 2 6 7 12 10 12 3 0 86 -48 185 -107z m-1320 -126 c0 -2 -15 -16 -32 -33 l-33 -29 29 33 c28 30 36 37 36 29z"/>
 </g>
<g id="layer102" fill="#fd6161" stroke="none">
 <path d="M1915 3523 l-70 -276 -87 -18 c-250 -50 -464 -165 -643 -344 -182 -181 -300 -406 -348 -659 -14 -70 -13 -76 2 -72 9 3 46 13 83 22 67 16 68 17 78 58 30 114 45 158 85 241 40 84 148 245 163 245 10 0 35 -40 147 -230 54 -91 99 -166 100 -168 4 -5 185 42 185 48 0 3 -107 113 -238 243 -131 130 -237 237 -236 237 10 0 61 -27 72 -37 22 -21 40 -15 100 34 78 64 151 109 241 150 86 39 251 86 251 72 0 -5 -29 -132 -65 -282 -36 -150 -73 -300 -81 -335 l-15 -64 40 -46 c22 -26 103 -110 180 -187 l141 -140 0 893 c0 490 -3 892 -8 892 -4 0 -39 -124 -77 -277z"/>
 <path d="M2154 3231 c3 -9 13 -46 22 -83 16 -67 17 -68 58 -78 114 -30 159 -45 243 -86 51 -24 131 -73 178 -109 48 -36 92 -65 98 -65 7 0 30 11 52 25 22 13 43 25 46 25 4 0 -101 -107 -232 -237 -136 -135 -235 -241 -230 -246 8 -8 144 -47 166 -47 6 0 64 90 130 200 66 110 123 199 128 200 4 0 34 -37 68 -82 74 -100 142 -238 171 -349 11 -46 26 -89 32 -95 13 -13 146 -47 154 -39 8 8 -16 127 -45 218 -118 377 -432 692 -809 810 -44 14 -115 32 -158 40 -70 14 -76 13 -72 -2z"/>
 <path d="M200 1992 c0 -4 124 -39 277 -77 l276 -70 18 -87 c50 -250 165 -464 344 -643 179 -179 393 -294 643 -344 l87 -18 70 -276 c38 -153 73 -277 77 -277 5 0 8 405 8 900 l0 900 -900 0 c-495 0 -900 -3 -900 -8z m993 -252 c138 -34 292 -70 340 -82 48 -11 87 -24 85 -28 -2 -4 -112 -119 -245 -254 -231 -235 -259 -259 -206 -174 13 21 23 42 23 47 0 5 -29 48 -65 96 -36 47 -85 128 -110 179 -46 97 -101 276 -84 276 5 0 123 -27 262 -60z m547 -553 c33 -135 60 -251 60 -256 0 -17 -179 38 -274 83 -102 49 -263 163 -250 176 12 11 398 248 401 245 2 -1 30 -112 63 -248z"/>
 <path d="M2048 1953 c23 -27 103 -110 179 -186 l139 -138 85 20 c401 96 597 143 611 147 15 4 14 -4 -7 -83 -40 -150 -108 -282 -208 -405 -49 -60 -55 -78 -34 -100 10 -11 37 -62 37 -72 0 -1 -107 105 -237 236 -130 131 -240 238 -243 238 -6 0 -53 -181 -48 -185 5 -4 367 -220 389 -232 20 -10 16 -15 -61 -73 -46 -34 -124 -81 -174 -105 -84 -40 -128 -55 -242 -85 -41 -10 -42 -11 -58 -78 -9 -37 -19 -74 -22 -83 -4 -15 2 -16 72 -2 43 8 114 26 158 40 431 135 773 525 848 964 11 65 14 70 43 77 16 5 146 38 288 73 141 35 257 67 257 71 0 5 -408 8 -906 8 l-906 0 40 -47z"/>
 </g>
<g id="layer103" fill="#ff0000" stroke="none">
 <path d="M1915 3523 l-70 -276 -87 -18 c-250 -50 -464 -165 -643 -344 -182 -181 -300 -406 -348 -659 -14 -70 -13 -76 2 -72 9 3 46 13 83 22 67 16 68 17 78 58 30 114 45 158 85 241 40 84 148 245 163 245 10 0 35 -40 147 -230 54 -91 99 -166 100 -168 4 -5 185 42 185 48 0 9 -463 464 -485 476 -11 7 -16 15 -12 20 4 5 18 2 30 -6 12 -7 41 -24 64 -37 l42 -24 58 47 c79 65 152 110 242 151 86 39 251 86 251 72 0 -5 -29 -132 -65 -282 -36 -150 -73 -300 -81 -335 l-15 -64 40 -46 c22 -26 103 -110 180 -187 l141 -140 0 893 c0 490 -3 892 -8 892 -4 0 -39 -124 -77 -277z"/>
 <path d="M2154 3231 c3 -9 13 -46 22 -83 16 -67 17 -68 58 -78 114 -30 159 -45 243 -86 51 -24 131 -73 178 -109 48 -36 88 -65 90 -65 2 0 31 16 65 36 33 20 64 33 68 29 4 -4 -4 -14 -18 -23 -46 -29 -480 -466 -471 -475 8 -8 145 -47 166 -47 6 0 64 90 130 200 66 110 123 199 128 200 4 0 34 -37 68 -82 74 -100 142 -238 171 -349 11 -46 26 -89 32 -95 13 -13 146 -47 154 -39 8 8 -16 127 -45 218 -118 377 -432 692 -809 810 -44 14 -115 32 -158 40 -70 14 -76 13 -72 -2z"/>
 <path d="M200 1992 c0 -4 124 -39 277 -77 l276 -70 18 -87 c44 -220 148 -430 292 -593 l44 -49 42 71 42 70 -66 87 c-36 48 -85 129 -110 180 -46 97 -101 276 -84 276 5 0 123 -27 262 -60 138 -34 292 -70 340 -82 48 -11 87 -24 85 -28 -2 -5 -104 -111 -228 -237 -124 -125 -235 -242 -248 -260 l-23 -32 63 -52 c175 -146 359 -235 576 -278 l87 -18 70 -276 c38 -153 73 -277 77 -277 5 0 8 405 8 900 l0 900 -900 0 c-495 0 -900 -3 -900 -8z m1540 -805 c33 -135 60 -251 60 -256 0 -17 -179 38 -274 83 -102 49 -263 163 -250 176 12 11 398 248 401 245 2 -1 30 -112 63 -248z"/>
 <path d="M2048 1953 c23 -27 103 -110 179 -186 l139 -138 85 20 c401 96 597 143 611 147 15 4 14 -4 -7 -83 -40 -150 -108 -282 -209 -406 l-47 -58 24 -42 c13 -23 30 -52 37 -64 8 -12 11 -26 6 -30 -5 -4 -13 1 -20 12 -12 22 -467 485 -476 485 -6 0 -53 -181 -48 -185 5 -4 367 -220 389 -232 20 -10 16 -15 -61 -73 -46 -34 -124 -81 -174 -105 -84 -40 -128 -55 -242 -85 -41 -10 -42 -11 -58 -78 -9 -37 -19 -74 -22 -83 -4 -15 2 -16 72 -2 43 8 114 26 158 40 431 135 773 525 848 964 11 65 14 70 43 77 16 5 146 38 288 73 141 35 257 67 257 71 0 5 -408 8 -906 8 l-906 0 40 -47z"/>
 </g>
<g id="layer104" fill="#a00101" stroke="none">
 <path d="M1827 3158 c-87 -354 -165 -671 -173 -706 l-15 -64 40 -46 c22 -26 103 -110 180 -187 l141 -140 0 893 c0 490 -4 892 -8 892 -4 0 -79 -289 -165 -642z"/>
 <path d="M2615 2619 c-190 -188 -233 -236 -221 -244 15 -12 165 -49 170 -44 2 2 53 85 113 184 115 191 187 324 178 333 -3 3 -111 -100 -240 -229z"/>
 <path d="M1130 2835 c0 -3 11 -23 25 -45 14 -22 25 -46 25 -53 0 -8 8 -25 18 -38 10 -13 65 -103 122 -199 56 -96 104 -176 105 -178 3 -3 178 39 185 45 5 5 -439 451 -462 464 -10 5 -18 7 -18 4z"/>
 <path d="M200 1992 c0 -6 936 -241 1328 -333 51 -12 92 -25 90 -29 -2 -5 -110 -117 -241 -250 -131 -133 -236 -244 -233 -247 3 -3 28 9 56 26 28 17 56 31 63 31 7 0 21 6 32 14 11 7 102 63 202 124 l181 110 153 -619 c84 -340 157 -619 161 -619 4 0 8 405 8 900 l0 900 -900 0 c-495 0 -900 -4 -900 -8z"/>
 <path d="M2048 1953 c23 -27 103 -110 179 -186 l139 -138 85 20 c445 105 1369 337 1369 343 0 4 -408 8 -906 8 l-906 0 40 -47z"/>
 <path d="M2342 1519 c-12 -51 -21 -93 -20 -94 2 -1 82 -49 178 -105 96 -57 182 -109 190 -115 8 -7 26 -16 40 -20 14 -4 42 -19 63 -32 22 -14 42 -22 45 -19 6 6 -457 476 -468 476 -3 0 -16 -41 -28 -91z"/>
 </g>
<g id="layer105" fill="#000000" stroke="none">
 <path d="M1918 3528 c-36 -150 -74 -309 -83 -353 -10 -44 -22 -87 -26 -95 -7 -12 -66 -252 -155 -628 l-15 -64 40 -46 c22 -26 103 -110 180 -187 l141 -140 0 893 c0 490 -3 892 -8 892 -4 0 -37 -123 -74 -272z"/>
 <path d="M2608 2613 c-183 -183 -226 -230 -214 -238 15 -12 165 -49 170 -44 24 26 239 396 240 413 2 13 13 40 25 60 13 20 19 36 15 36 -4 0 -111 -102 -236 -227z"/>
 <path d="M1170 2785 c12 -20 20 -42 17 -50 -3 -7 2 -24 12 -37 9 -13 64 -102 121 -198 56 -96 104 -176 105 -178 3 -3 178 39 185 45 5 5 -442 453 -453 453 -5 0 1 -16 13 -35z"/>
 <path d="M200 1992 c0 -7 437 -117 625 -157 44 -10 85 -21 90 -25 8 -6 182 -49 618 -152 48 -11 87 -24 85 -28 -2 -5 -106 -113 -231 -240 -126 -127 -227 -234 -224 -236 3 -3 22 5 44 19 21 13 43 22 50 20 10 -4 83 38 355 205 l67 41 62 -257 c34 -141 65 -261 69 -267 4 -5 15 -46 25 -90 40 -188 150 -625 157 -625 5 0 8 405 8 900 l0 900 -900 0 c-495 0 -900 -3 -900 -8z"/>
 <path d="M2048 1953 c23 -27 103 -110 179 -186 l139 -138 95 22 c116 28 576 141 679 168 41 10 211 52 378 92 166 41 302 77 302 81 0 5 -408 8 -906 8 l-906 0 40 -47z"/>
 <path d="M2342 1519 c-12 -51 -21 -93 -20 -94 2 -1 82 -49 178 -105 96 -57 182 -109 191 -117 8 -7 25 -13 37 -13 11 0 37 -9 56 -21 20 -12 36 -17 36 -12 0 9 -441 453 -451 453 -2 0 -15 -41 -27 -91z"/>
 </g>

</svg>